<svg viewBox="0 0 24 24" xmlns="http://www.w3.org/2000/svg"><g display="inline"><path d="M9 302.65c-2.199 0-4 1.801-4 4v5a1 1 0 0 0 1 1 1 1 0 0 0 1-1v-5c0-1.125.875-2 2-2h6c1.125 0 2 .875 2 2v5a1 1 0 0 0 1 1 1 1 0 0 0 1-1v-5c0-2.199-1.801-4-4-4zM12 292.65c-2.197 0-4 1.803-4 4 0 2.198 1.803 4 4 4s4-1.802 4-4c0-2.197-1.803-4-4-4zm0 2c1.116 0 2 .884 2 2 0 1.117-.884 2-2 2s-2-.883-2-2c0-1.116.884-2 2-2z" style="line-height:normal;font-variant-ligatures:normal;font-variant-position:normal;font-variant-caps:normal;font-variant-numeric:normal;font-variant-alternates:normal;font-variant-east-asian:normal;font-feature-settings:normal;font-variation-settings:normal;text-indent:0;text-align:start;text-decoration-line:none;text-decoration-style:solid;text-decoration-color:#000;text-transform:none;text-orientation:mixed;white-space:normal;shape-padding:0;shape-margin:0;inline-size:0;isolation:auto;mix-blend-mode:normal;solid-color:#000;solid-opacity:1" transform="translate(0 -290.65)" color="#000000" font-style="normal" font-variant="normal" font-weight="400" font-stretch="normal" font-size="medium" font-family="sans-serif" text-decoration="none" letter-spacing="normal" word-spacing="normal" writing-mode="lr-tb" direction="ltr" dominant-baseline="auto" baseline-shift="baseline" text-anchor="start" clip-rule="nonzero" display="inline" overflow="visible" visibility="visible" opacity="1" color-interpolation="sRGB" color-interpolation-filters="linearRGB" vector-effect="none" fill="#48bb78" fill-opacity="1" fill-rule="nonzero" stroke="none" stroke-linecap="round" stroke-linejoin="round" stroke-miterlimit="4" stroke-dasharray="none" stroke-dashoffset="0" stroke-opacity="1" color-rendering="auto" image-rendering="auto" shape-rendering="auto" text-rendering="auto" enable-background="accumulate" stop-color="#48bb78" stop-opacity="1" class="fill-000000 stop-color-000000"></path></g></svg>