<svg id="Logo" xmlns="http://www.w3.org/2000/svg" viewBox="0 0 340.18 98.54"><defs><style>.cls-1{fill:#48bb78;}.cls-2,.cls-4{fill:#f0fff4;}.cls-3{fill:#9faec0;}.cls-4{font-size:40px;font-family:Poppins-SemiBold, Poppins;font-weight:600;}</style></defs><g id="Picto"><path class="cls-1" d="M58.07,88.9c-11.5-2.35-20.17-7.61-28.69-13.36,7,11.92,18.72,17.19,30.88,22.07-3.41,1.32-8.9,1.23-16.91-.2-22.15-4-37.64-20-40.78-42.27-.16-1.14-.19-2.3-.26-3.46-.12-2.36,1-2.75,2.95-1.85a99.89,99.89,0,0,0,19.42,6.23c12.92,2.94,22,10.64,28,22.15C54.36,81.38,55.92,84.61,58.07,88.9Z"/><path class="cls-2" d="M55.53,93.19c6.37-.28,12.73.86,19.08-.4,1.84-.36,3.72-.59,5.52-1.12,5.06-1.52,5.34-2,3.38-6.92-.88-2.2.67-2.84,1.88-3.76A63.15,63.15,0,0,0,99.57,66.4c3.29-4.86,5.57-10.09,5.82-16.1.12-3-.73-3.65-3.71-3-28.41,6.29-56.93,5.89-85.45.8-4.7-.83-9.36-2.1-13.43-4.76C-1,40.89-.9,38.58,2.78,36S15.65,30.8,22.06,30.4a73.94,73.94,0,0,0-7.5,3.28c-3.88,2.21-3.82,4.83.08,7.12,4.84,2.85,10.32,3.79,15.75,4.58,20.53,3,41,2.92,61.38-1.44a34.38,34.38,0,0,0,7.77-2.69c4.81-2.35,4.93-4.7.66-7.78l-1.48-1.06c8.28-2,16.87,4.34,16.51,12.26-.74,16.36-7.11,29.67-21.67,38.26-1.79,1-2.89,2-2.53,4.37a6.2,6.2,0,0,1-4.34,7.2C76.18,98.21,65.78,97.18,55.53,93.19Z"/><path class="cls-3" d="M54.81,44.53c-7-.55-12.58-1.13-18.18-1.38-2.46-.12-3.5-1.38-4.4-3.37C29.6,34,26.81,28.3,24.16,22.53c-1.46-3.16-3-6.05-6.22-8-2.58-1.55-4-4.21-2.62-7.46S19.1,2,22.76,2.3c3.47.26,6.1,2.25,6.26,5.5.23,4.67,2.93,7.67,5.5,10.92C41,27,47.5,35.23,54.81,44.53Z"/><path class="cls-1" d="M64.82,38.58c3.65-5.09,5.3-10.66,4-17a51.15,51.15,0,0,1-8.32,15c-2.26,2.79-3.8,2.24-5.67-.3-2.71-3.69-2.74-7.53-.85-11.45,1.75-3.64,3.86-7.11,5.61-10.76a23.08,23.08,0,0,0,2-11.4C61.6,1.3,61.32-.93,63.78.42c8.81,4.8,18.15,15.81,15.32,27.16-.68,2.74-2.17,5-3.54,7.38C74,40.09,69.92,41.45,64.82,38.58Z"/><path class="cls-1" d="M79,38.38l3.44-2.72c1.19-3.18,3.6-5.46,6.36-8.29-2.15,1.87-3,5-6.21,2.9.06-4.62.18-9.24-1.52-13.66-.45-1.17-.61-2.27.89-2.83A25.34,25.34,0,0,0,96.08,1a42,42,0,0,1,3.59,25.14c-.06,6.1-3.74,9.81-8.46,12.87-3.28,2.13-7.2,1.84-10.74,3-1.52-.06-3-.38-3.23-2.15C77.08,38.76,78.26,38.71,79,38.38Z"/></g><text class="cls-4" transform="translate(142.62 62.55)">Nu3Menu</text></svg>