<?xml version="1.0" standalone="no"?>
<!DOCTYPE svg PUBLIC "-//W3C//DTD SVG 20010904//EN">
<svg version="1.0" xmlns="http://www.w3.org/2000/svg"
 width="125.000000pt" height="125.000000pt" viewBox="0 0 125.000000 125.000000"
 preserveAspectRatio="xMidYMid meet">
<metadata>
Created by potrace 1.14, written by Peter Selinger 2001-2017
</metadata>
<g transform="translate(0.000000,125.000000) scale(0.100000,-0.100000)"
fill="#000000" stroke="none">
<path d="M118 1236 c-41 -18 -78 -56 -99 -101 -17 -37 -19 -74 -19 -510 0
-436 2 -473 19 -510 22 -47 64 -89 104 -104 39 -15 965 -15 1004 0 40 15 82
57 104 104 17 37 19 74 19 508 0 510 0 509 -58 570 -54 57 -52 57 -571 56
-347 0 -483 -4 -503 -13z"/>
</g>
</svg>
